<svg xmlns="http://www.w3.org/2000/svg" viewBox="0 0 23 23"><path d="M1 1h7v7h-7zM9 1h5v5h-1v-1h-1v-2h-1v-1h-2zM15 1h7v7h-7zM2 2v5h5v-5zM16 2v5h5v-5zM3 3h3v3h-3zM10 3h1v2h-1v1h1v1h-1v2h2v-1h1v-1h1v2h-1v1h1v1h-1v1h-1v1h-1v-1h-4v-1h1v-1h-1v-1h2v-5h1zM17 3h3v3h-3zM12 6h1v1h-1zM11 7h1v1h-1zM1 9h1v1h-1zM5 9h1v2h-1zM14 9h5v1h-5zM21 9h1v1h-1zM3 10h1v1h1v1h2v1h-3v-1h-1zM9 10v1h3v-1zM19 10h2v1h-2zM15 11h4v1h-1v1h-1v-1h-1v3h-1v1h-1v1h-1v1h1v1h-1v1h-2v-1h-1v-1h-1v-1h3v-1h1v-3h1v-1h1zM2 12h1v2h-2v-1h1zM20 12h1v2h1v1h-1v1h1v3h-2v-1h1v-1h-1zM7 13h1v1h-1zM9 13h2v1h-1v2h-1zM11 14h1v2h-1zM17 14h2v2h-1v1h-1v-1h-1v-1h1zM1 15h7v7h-7zM2 16v5h5v-5zM3 17h3v3h-3zM15 17h2v1h-2zM17 18h2v1h-1v1h-1zM15 19h1v1h1v2h-4v-1h1v-1h1zM19 19h1v1h-1zM9 21h1v1h-1zM18 21h1v1h-1zM21 21h1v1h-1z"/></svg>